<svg width="390" height="259" viewBox="0 0 390 259" fill="none" xmlns="http://www.w3.org/2000/svg">
<g clip-path="url(#clip0_32_618)">
<path d="M358.347 119.222L353.219 126.713H435.657L431.633 119.222H358.347Z" fill="white"/>
<path d="M435.657 128.258H353.219C352.645 128.258 352.121 127.941 351.853 127.433C351.585 126.926 351.618 126.314 351.946 125.845L357.073 118.354C357.363 117.933 357.839 117.682 358.347 117.682H431.633C432.202 117.682 432.727 117.993 432.995 118.496L437.018 125.987C437.275 126.467 437.264 127.04 436.985 127.51C436.706 127.974 436.203 128.258 435.662 128.258H435.657ZM356.144 125.173H433.077L430.709 120.767H359.162L356.144 125.173Z" fill="#3A5A7A"/>
<path d="M322.694 250.073H465.155V137.616C454.998 134.16 430.256 126.773 395.849 126.505C359.178 126.221 332.774 134.193 322.694 137.616V250.073Z" fill="white"/>
<path d="M465.16 252.066H322.699C321.885 252.066 321.223 251.405 321.223 250.592V137.682C321.223 137.048 321.622 136.491 322.224 136.284C332.463 132.79 358.774 131.021 396.33 131.315C435.619 131.621 456.348 133.106 465.647 136.284C466.243 136.486 466.647 137.048 466.647 137.682V250.592C466.647 251.405 465.986 252.066 465.171 252.066H465.16ZM324.175 249.112H463.684V138.752C454.233 135.907 433.875 134.559 396.302 134.264C360.802 133.985 334.693 135.618 324.175 138.752V249.112Z" fill="#3A5A7A"/>
<path d="M458.245 159.297H328.538C327.931 159.297 327.433 158.806 327.433 158.194C327.433 157.583 327.925 157.091 328.538 157.091H458.245C458.852 157.091 459.349 157.583 459.349 158.194C459.349 158.806 458.857 159.297 458.245 159.297Z" fill="#3A5A7A"/>
<path d="M458.245 176.223H328.538C327.931 176.223 327.433 175.731 327.433 175.12C327.433 174.508 327.925 174.017 328.538 174.017H458.245C458.852 174.017 459.349 174.508 459.349 175.12C459.349 175.731 458.857 176.223 458.245 176.223Z" fill="#3A5A7A"/>
<path d="M458.245 191.292H328.538C327.931 191.292 327.433 190.801 327.433 190.189C327.433 189.578 327.925 189.086 328.538 189.086H458.245C458.852 189.086 459.349 189.578 459.349 190.189C459.349 190.801 458.857 191.292 458.245 191.292Z" fill="#3A5A7A"/>
<path d="M458.245 207.584H328.538C327.931 207.584 327.433 207.093 327.433 206.481C327.433 205.87 327.925 205.379 328.538 205.379H458.245C458.852 205.379 459.349 205.87 459.349 206.481C459.349 207.093 458.857 207.584 458.245 207.584Z" fill="#3A5A7A"/>
<path d="M394.941 217.046H382.401V223.729H394.941V217.046Z" fill="white"/>
<path d="M394.903 225.203H382.433C381.597 225.203 380.919 224.526 380.919 223.691V217.079C380.919 216.244 381.597 215.567 382.433 215.567H394.903C395.739 215.567 396.417 216.244 396.417 217.079V223.691C396.417 224.526 395.739 225.203 394.903 225.203ZM383.877 222.25H393.465V218.521H383.877V222.25Z" fill="#3A5A7A"/>
<path d="M381.991 217.046H369.45V223.729H381.991V217.046Z" fill="white"/>
<path d="M381.952 225.203H369.483C368.647 225.203 367.969 224.526 367.969 223.691V217.085C367.969 216.249 368.647 215.572 369.483 215.572H381.952C382.789 215.572 383.467 216.249 383.467 217.085V223.696C383.467 224.532 382.789 225.209 381.952 225.209V225.203ZM370.926 222.25H380.515V218.52H370.926V222.25Z" fill="#3A5A7A"/>
<path d="M369.04 217.046H356.5V223.729H369.04V217.046Z" fill="white"/>
<path d="M369.007 225.203H356.538C355.702 225.203 355.024 224.526 355.024 223.691V217.085C355.024 216.249 355.702 215.572 356.538 215.572H369.007C369.844 215.572 370.522 216.249 370.522 217.085V223.691C370.522 224.526 369.844 225.203 369.007 225.203ZM357.981 222.25H367.57V218.52H357.981V222.25Z" fill="#3A5A7A"/>
<path d="M356.707 217.046H344.167V223.729H356.707V217.046Z" fill="white"/>
<path d="M356.669 225.203H344.2C343.363 225.203 342.685 224.526 342.685 223.691V217.084C342.685 216.249 343.363 215.572 344.2 215.572H356.669C357.505 215.572 358.183 216.249 358.183 217.084V223.691C358.183 224.526 357.505 225.203 356.669 225.203ZM345.643 222.249H355.231V218.52H345.643V222.249Z" fill="#3A5A7A"/>
<path d="M192.297 250.504H321.939V78.9389C312.695 73.6646 290.178 62.39 258.87 61.986C225.502 61.5492 201.47 73.7083 192.297 78.9389V250.504Z" fill="white"/>
<path d="M321.939 251.979H192.297C191.483 251.979 190.821 251.318 190.821 250.504V78.9389C190.821 78.4093 191.106 77.9179 191.565 77.6558C203.105 71.0766 227.207 60.0914 258.887 60.5063C287.406 60.8776 309.317 70.0393 322.672 77.6558C323.131 77.9179 323.415 78.4093 323.415 78.9389V250.504C323.415 251.318 322.754 251.979 321.939 251.979ZM193.773 249.025H320.458V79.7961C307.343 72.4361 286.215 63.815 258.848 63.4547C228.525 63.0561 205.324 73.3261 193.773 79.7961V249.025Z" fill="#3A5A7A"/>
<path d="M321.939 79.736H192.297L199.798 74.9968L227.142 65.0599L252.731 61.7403L273.461 62.6357L295.76 67.7079L315.669 75.5974L321.939 79.736Z" fill="white"/>
<path d="M321.939 81.2102H192.297C191.641 81.2102 191.062 80.7734 190.876 80.1455C190.696 79.5121 190.953 78.8406 191.505 78.4857L199.005 73.752C199.092 73.6974 199.191 73.6482 199.289 73.6155L226.633 63.6785C226.737 63.6403 226.841 63.6185 226.951 63.6021L252.54 60.2825C252.622 60.2716 252.709 60.2661 252.791 60.2716L273.527 61.167C273.614 61.167 273.701 61.1833 273.789 61.1997L296.087 66.272C296.164 66.2883 296.235 66.3102 296.306 66.3375L316.216 74.227C316.309 74.2652 316.402 74.3089 316.484 74.3689L322.754 78.5021C323.301 78.8624 323.541 79.534 323.355 80.1564C323.169 80.7788 322.59 81.2102 321.939 81.2102ZM197.403 78.2564H317.025L314.991 76.9132L295.328 69.122L273.27 64.1044L252.797 63.2199L227.497 66.5013L200.459 76.329L197.409 78.2564H197.403Z" fill="#3A5A7A"/>
<path d="M321.939 251.979H192.297C191.483 251.979 190.821 251.318 190.821 250.504V78.9389C190.821 78.4093 191.106 77.9179 191.565 77.6558C203.105 71.0766 227.207 60.0914 258.887 60.5063C287.406 60.8776 309.317 70.0393 322.672 77.6558C323.131 77.9179 323.415 78.4093 323.415 78.9389V250.504C323.415 251.318 322.754 251.979 321.939 251.979ZM193.773 249.025H320.458V79.7961C307.343 72.4361 286.215 63.815 258.848 63.4547C228.525 63.0561 205.324 73.3261 193.773 79.7961V249.025Z" fill="#3A5A7A"/>
<path d="M89.1413 246.568H89.7864C89.7864 246.568 92.5744 246.879 95.9637 244.995C99.3531 243.112 101.917 234.813 101.917 234.813L101.747 224.854L91.1585 217.434L78.2135 220.606L77.9511 223.653V233.36C77.9511 233.36 77.6121 235.304 76.8687 237.068L78.6016 241.157L84.2323 244.395L89.1413 246.557V246.568Z" fill="white"/>
<path d="M69.0076 242.779L72.5227 238.378L74.4743 215.452L74.2501 196.49L67.9471 187.028L58.5225 185.128L49.6556 189.196L46.4795 196.272L44.8613 216.713L45.6431 236.265L51.3885 243.953L61.2012 246.961C61.2012 246.961 65.3176 246.481 68.3352 244.406L67.7284 243.057L69.0131 242.779H69.0076Z" fill="white"/>
<path d="M42.0679 235.943C42.0679 235.943 41.1331 232.258 41.1331 229.08C41.1331 225.902 41.3627 211.324 41.3627 211.324L37.5524 206.296C37.5524 206.296 29.4672 205.013 29.1884 205.013C28.9096 205.013 21.3273 207.688 21.3273 207.688L16.6971 214.262L15.2976 230.92L19.2063 240.873L31.6484 246.956C31.6484 246.956 36.1256 246.41 38.602 244.515C41.0784 242.62 41.3572 239.694 41.3572 239.694L42.0624 235.937L42.0679 235.943Z" fill="white"/>
<path d="M156.25 171.604H114.211V251.056H156.25V171.604Z" fill="white"/>
<path d="M156.206 252.596H114.244C113.37 252.596 112.659 251.886 112.659 251.012V171.642C112.659 170.768 113.37 170.059 114.244 170.059H156.206C157.081 170.059 157.792 170.768 157.792 171.642V251.012C157.792 251.886 157.081 252.596 156.206 252.596ZM115.753 249.511H154.703V173.143H115.753V249.511Z" fill="#3A5A7A"/>
<path d="M303.09 100.631H309.377V87.7784H303.09V100.631Z" fill="white"/>
<path d="M287.1 100.631H293.387V87.7784H287.1V100.631Z" fill="white"/>
<path d="M271.105 100.631H277.391V87.7784H271.105V100.631Z" fill="white"/>
<path d="M255.104 100.631H261.396V87.7784H255.104V100.631Z" fill="white"/>
<path d="M239.108 100.631H245.4V87.7784H239.108V100.631Z" fill="white"/>
<path d="M223.118 100.631H229.41V87.7784H223.118V100.631Z" fill="white"/>
<path d="M207.123 100.631H213.415V87.7784H207.123V100.631Z" fill="white"/>
<path d="M303.09 126.784H309.377V113.931H303.09V126.784Z" fill="white"/>
<path d="M287.1 126.784H293.387V113.931H287.1V126.784Z" fill="white"/>
<path d="M271.105 126.784H277.391V113.931H271.105V126.784Z" fill="white"/>
<path d="M255.104 126.784H261.396V113.931H255.104V126.784Z" fill="white"/>
<path d="M239.108 126.784H245.4V113.931H239.108V126.784Z" fill="white"/>
<path d="M223.118 126.784H229.41V113.931H223.118V126.784Z" fill="white"/>
<path d="M207.123 126.784H213.415V113.931H207.123V126.784Z" fill="white"/>
<path d="M303.09 152.942H309.377V140.089H303.09V152.942Z" fill="white"/>
<path d="M287.1 152.942H293.387V140.089H287.1V152.942Z" fill="white"/>
<path d="M271.105 152.942H277.391V140.089H271.105V152.942Z" fill="white"/>
<path d="M255.104 152.942H261.396V140.089H255.104V152.942Z" fill="white"/>
<path d="M239.108 152.942H245.4V140.089H239.108V152.942Z" fill="white"/>
<path d="M223.118 152.942H229.41V140.089H223.118V152.942Z" fill="white"/>
<path d="M207.123 152.942H213.415V140.089H207.123V152.942Z" fill="white"/>
<path d="M303.09 179.095H309.377V166.242H303.09V179.095Z" fill="white"/>
<path d="M287.1 179.095H293.387V166.242H287.1V179.095Z" fill="white"/>
<path d="M271.105 179.095H277.391V166.242H271.105V179.095Z" fill="white"/>
<path d="M255.104 179.095H261.396V166.242H255.104V179.095Z" fill="white"/>
<path d="M239.108 179.095H245.4V166.242H239.108V179.095Z" fill="white"/>
<path d="M223.118 179.095H229.41V166.242H223.118V179.095Z" fill="white"/>
<path d="M207.123 179.095H213.415V166.242H207.123V179.095Z" fill="white"/>
<path d="M303.09 205.198H309.377V192.346H303.09V205.198Z" fill="white"/>
<path d="M287.1 205.198H293.387V192.346H287.1V205.198Z" fill="white"/>
<path d="M271.105 205.198H277.391V192.346H271.105V205.198Z" fill="white"/>
<path d="M255.104 205.198H261.396V192.346H255.104V205.198Z" fill="white"/>
<path d="M239.108 205.198H245.4V192.346H239.108V205.198Z" fill="white"/>
<path d="M223.118 205.198H229.41V192.346H223.118V205.198Z" fill="white"/>
<path d="M207.123 205.198H213.415V192.346H207.123V205.198Z" fill="white"/>
<path d="M387.758 195.906V202.185H400.627V195.906H387.758Z" fill="white"/>
<path d="M400.627 203.287H387.758C387.151 203.287 386.654 202.796 386.654 202.185V195.906C386.654 195.3 387.146 194.803 387.758 194.803H400.627C401.233 194.803 401.731 195.294 401.731 195.906V202.185C401.731 202.791 401.239 203.287 400.627 203.287ZM388.857 201.087H399.522V197.009H388.857V201.087Z" fill="#3A5A7A"/>
<path d="M387.753 179.936V186.214H400.621V179.936H387.753Z" fill="white"/>
<path d="M400.627 187.317H387.758C387.151 187.317 386.654 186.826 386.654 186.214V179.936C386.654 179.33 387.146 178.833 387.758 178.833H400.627C401.233 178.833 401.731 179.324 401.731 179.936V186.214C401.731 186.82 401.239 187.317 400.627 187.317ZM388.857 185.117H399.522V181.038H388.857V185.117Z" fill="#3A5A7A"/>
<path d="M387.758 163.96V170.239H400.627V163.96H387.758Z" fill="white"/>
<path d="M400.627 171.342H387.758C387.151 171.342 386.654 170.85 386.654 170.239V163.96C386.654 163.354 387.146 162.857 387.758 162.857H400.627C401.233 162.857 401.731 163.348 401.731 163.96V170.239C401.731 170.845 401.239 171.342 400.627 171.342ZM388.857 169.141H399.522V165.063H388.857V169.141Z" fill="#3A5A7A"/>
<path d="M387.758 147.979V154.263H400.627V147.979H387.758Z" fill="white"/>
<path d="M400.627 155.366H387.758C387.151 155.366 386.654 154.875 386.654 154.263V147.979C386.654 147.373 387.146 146.876 387.758 146.876H400.627C401.233 146.876 401.731 147.367 401.731 147.979V154.263C401.731 154.869 401.239 155.366 400.627 155.366ZM388.857 153.166H399.522V149.087H388.857V153.166Z" fill="#3A5A7A"/>
<path d="M361.573 195.906V202.185H374.441V195.906H361.573Z" fill="white"/>
<path d="M374.441 203.287H361.573C360.966 203.287 360.469 202.796 360.469 202.185V195.906C360.469 195.3 360.961 194.803 361.573 194.803H374.441C375.048 194.803 375.546 195.294 375.546 195.906V202.185C375.546 202.791 375.054 203.287 374.441 203.287ZM362.672 201.087H373.337V197.009H362.672V201.087Z" fill="#3A5A7A"/>
<path d="M361.567 179.93V186.209H374.436V179.93H361.567Z" fill="white"/>
<path d="M374.441 187.317H361.573C360.966 187.317 360.469 186.826 360.469 186.214V179.936C360.469 179.33 360.961 178.833 361.573 178.833H374.441C375.048 178.833 375.546 179.324 375.546 179.936V186.214C375.546 186.82 375.054 187.317 374.441 187.317ZM362.672 185.117H373.337V181.038H362.672V185.117Z" fill="#3A5A7A"/>
<path d="M361.573 163.96V170.239H374.441V163.96H361.573Z" fill="white"/>
<path d="M374.441 171.342H361.573C360.966 171.342 360.469 170.85 360.469 170.239V163.96C360.469 163.354 360.961 162.857 361.573 162.857H374.441C375.048 162.857 375.546 163.348 375.546 163.96V170.239C375.546 170.845 375.054 171.342 374.441 171.342ZM362.672 169.141H373.337V165.063H362.672V169.141Z" fill="#3A5A7A"/>
<path d="M361.573 147.979V154.263H374.441V147.979H361.573Z" fill="white"/>
<path d="M374.441 155.366H361.573C360.966 155.366 360.469 154.875 360.469 154.263V147.979C360.469 147.373 360.961 146.876 361.573 146.876H374.441C375.048 146.876 375.546 147.367 375.546 147.979V154.263C375.546 154.869 375.054 155.366 374.441 155.366ZM362.672 153.166H373.337V149.087H362.672V153.166Z" fill="#3A5A7A"/>
<path d="M335.437 195.906V202.185H348.305V195.906H335.437Z" fill="white"/>
<path d="M348.305 203.287H335.437C334.83 203.287 334.332 202.796 334.332 202.185V195.906C334.332 195.3 334.824 194.803 335.437 194.803H348.305C348.912 194.803 349.409 195.294 349.409 195.906V202.185C349.409 202.791 348.917 203.287 348.305 203.287ZM336.535 201.087H347.201V197.009H336.535V201.087Z" fill="#3A5A7A"/>
<path d="M335.431 179.93V186.209H348.3V179.93H335.431Z" fill="white"/>
<path d="M348.305 187.317H335.437C334.83 187.317 334.332 186.826 334.332 186.214V179.936C334.332 179.33 334.824 178.833 335.437 178.833H348.305C348.912 178.833 349.409 179.324 349.409 179.936V186.214C349.409 186.82 348.917 187.317 348.305 187.317ZM336.535 185.117H347.201V181.038H336.535V185.117Z" fill="#3A5A7A"/>
<path d="M335.437 163.96V170.239H348.305V163.96H335.437Z" fill="white"/>
<path d="M348.305 171.342H335.437C334.83 171.342 334.332 170.85 334.332 170.239V163.96C334.332 163.354 334.824 162.857 335.437 162.857H348.305C348.912 162.857 349.409 163.348 349.409 163.96V170.239C349.409 170.845 348.917 171.342 348.305 171.342ZM336.535 169.141H347.201V165.063H336.535V169.141Z" fill="#3A5A7A"/>
<path d="M335.437 147.979V154.263H348.305V147.979H335.437Z" fill="white"/>
<path d="M348.305 155.366H335.437C334.83 155.366 334.332 154.875 334.332 154.263V147.979C334.332 147.373 334.824 146.876 335.437 146.876H348.305C348.912 146.876 349.409 147.367 349.409 147.979V154.263C349.409 154.869 348.917 155.366 348.305 155.366ZM336.535 153.166H347.201V149.087H336.535V153.166Z" fill="#3A5A7A"/>
<path d="M301.062 211.925H311.405C312.22 211.925 312.881 211.264 312.881 210.451C312.881 209.637 312.22 208.977 311.405 208.977H301.062C300.248 208.977 299.586 209.637 299.586 210.451C299.586 211.264 300.248 211.925 301.062 211.925Z" fill="#3A5A7A"/>
<path d="M309.377 206.673H303.09C302.276 206.673 301.614 206.012 301.614 205.198V192.346C301.614 191.532 302.276 190.872 303.09 190.872H309.377C310.191 190.872 310.853 191.532 310.853 192.346V205.198C310.853 206.012 310.191 206.673 309.377 206.673ZM304.566 203.719H307.901V193.815H304.566V203.719Z" fill="#3A5A7A"/>
<path d="M285.067 211.925H295.41C296.224 211.925 296.886 211.264 296.886 210.451C296.886 209.637 296.224 208.977 295.41 208.977H285.067C284.252 208.977 283.591 209.637 283.591 210.451C283.591 211.264 284.252 211.925 285.067 211.925Z" fill="#3A5A7A"/>
<path d="M293.387 206.673H287.1C286.286 206.673 285.624 206.012 285.624 205.198V192.346C285.624 191.532 286.286 190.872 287.1 190.872H293.387C294.201 190.872 294.863 191.532 294.863 192.346V205.198C294.863 206.012 294.201 206.673 293.387 206.673ZM288.576 203.719H291.911V193.815H288.576V203.719Z" fill="#3A5A7A"/>
<path d="M269.077 211.925H279.42C280.234 211.925 280.896 211.264 280.896 210.451C280.896 209.637 280.234 208.977 279.42 208.977H269.077C268.262 208.977 267.601 209.637 267.601 210.451C267.601 211.264 268.262 211.925 269.077 211.925Z" fill="#3A5A7A"/>
<path d="M277.391 206.673H271.105C270.29 206.673 269.629 206.012 269.629 205.198V192.346C269.629 191.532 270.29 190.872 271.105 190.872H277.391C278.206 190.872 278.867 191.532 278.867 192.346V205.198C278.867 206.012 278.206 206.673 277.391 206.673ZM272.581 203.719H275.915V193.815H272.581V203.719Z" fill="#3A5A7A"/>
<path d="M253.081 211.925H263.424C264.239 211.925 264.9 211.264 264.9 210.451C264.9 209.637 264.239 208.977 263.424 208.977H253.081C252.267 208.977 251.605 209.637 251.605 210.451C251.605 211.264 252.267 211.925 253.081 211.925Z" fill="#3A5A7A"/>
<path d="M261.396 206.673H255.104C254.289 206.673 253.628 206.012 253.628 205.198V192.346C253.628 191.532 254.289 190.872 255.104 190.872H261.396C262.211 190.872 262.872 191.532 262.872 192.346V205.198C262.872 206.012 262.211 206.673 261.396 206.673ZM256.585 203.719H259.92V193.815H256.585V203.719Z" fill="#3A5A7A"/>
<path d="M237.086 211.925H247.429C248.243 211.925 248.905 211.264 248.905 210.451C248.905 209.637 248.243 208.977 247.429 208.977H237.086C236.271 208.977 235.61 209.637 235.61 210.451C235.61 211.264 236.271 211.925 237.086 211.925Z" fill="#3A5A7A"/>
<path d="M245.401 206.673H239.109C238.294 206.673 237.633 206.012 237.633 205.198V192.346C237.633 191.532 238.294 190.872 239.109 190.872H245.401C246.215 190.872 246.877 191.532 246.877 192.346V205.198C246.877 206.012 246.215 206.673 245.401 206.673ZM240.59 203.719H243.925V193.815H240.59V203.719Z" fill="#3A5A7A"/>
<path d="M221.09 211.925H231.433C232.248 211.925 232.909 211.264 232.909 210.451C232.909 209.637 232.248 208.977 231.433 208.977H221.09C220.276 208.977 219.614 209.637 219.614 210.451C219.614 211.264 220.276 211.925 221.09 211.925Z" fill="#3A5A7A"/>
<path d="M229.41 206.673H223.118C222.304 206.673 221.642 206.012 221.642 205.198V192.346C221.642 191.532 222.304 190.872 223.118 190.872H229.41C230.225 190.872 230.886 191.532 230.886 192.346V205.198C230.886 206.012 230.225 206.673 229.41 206.673ZM224.6 203.719H227.934V193.815H224.6V203.719Z" fill="#3A5A7A"/>
<path d="M205.1 211.925H215.443C216.258 211.925 216.919 211.264 216.919 210.451C216.919 209.637 216.258 208.977 215.443 208.977H205.1C204.286 208.977 203.624 209.637 203.624 210.451C203.624 211.264 204.286 211.925 205.1 211.925Z" fill="#3A5A7A"/>
<path d="M213.415 206.673H207.123C206.308 206.673 205.647 206.012 205.647 205.198V192.346C205.647 191.532 206.308 190.872 207.123 190.872H213.415C214.23 190.872 214.891 191.532 214.891 192.346V205.198C214.891 206.012 214.23 206.673 213.415 206.673ZM208.604 203.719H211.939V193.815H208.604V203.719Z" fill="#3A5A7A"/>
<path d="M301.062 107.363H311.405C312.22 107.363 312.881 106.702 312.881 105.889C312.881 105.075 312.22 104.415 311.405 104.415H301.062C300.248 104.415 299.586 105.075 299.586 105.889C299.586 106.702 300.248 107.363 301.062 107.363Z" fill="#3A5A7A"/>
<path d="M309.377 102.111H303.09C302.276 102.111 301.614 101.45 301.614 100.636V87.7839C301.614 86.9703 302.276 86.3097 303.09 86.3097H309.377C310.191 86.3097 310.853 86.9703 310.853 87.7839V100.636C310.853 101.45 310.191 102.111 309.377 102.111ZM304.566 99.1568H307.901V89.2526H304.566V99.1568Z" fill="#3A5A7A"/>
<path d="M285.067 107.363H295.41C296.224 107.363 296.886 106.702 296.886 105.889C296.886 105.075 296.224 104.415 295.41 104.415H285.067C284.252 104.415 283.591 105.075 283.591 105.889C283.591 106.702 284.252 107.363 285.067 107.363Z" fill="#3A5A7A"/>
<path d="M293.387 102.111H287.1C286.286 102.111 285.624 101.45 285.624 100.636V87.7839C285.624 86.9703 286.286 86.3097 287.1 86.3097H293.387C294.201 86.3097 294.863 86.9703 294.863 87.7839V100.636C294.863 101.45 294.201 102.111 293.387 102.111ZM288.576 99.1568H291.911V89.2526H288.576V99.1568Z" fill="#3A5A7A"/>
<path d="M269.077 107.363H279.42C280.234 107.363 280.896 106.702 280.896 105.889C280.896 105.075 280.234 104.415 279.42 104.415H269.077C268.262 104.415 267.601 105.075 267.601 105.889C267.601 106.702 268.262 107.363 269.077 107.363Z" fill="#3A5A7A"/>
<path d="M277.391 102.111H271.105C270.29 102.111 269.629 101.45 269.629 100.636V87.7839C269.629 86.9703 270.29 86.3097 271.105 86.3097H277.391C278.206 86.3097 278.867 86.9703 278.867 87.7839V100.636C278.867 101.45 278.206 102.111 277.391 102.111ZM272.581 99.1568H275.915V89.2526H272.581V99.1568Z" fill="#3A5A7A"/>
<path d="M253.081 107.363H263.424C264.239 107.363 264.9 106.702 264.9 105.889C264.9 105.075 264.239 104.415 263.424 104.415H253.081C252.267 104.415 251.605 105.075 251.605 105.889C251.605 106.702 252.267 107.363 253.081 107.363Z" fill="#3A5A7A"/>
<path d="M261.396 102.111H255.104C254.289 102.111 253.628 101.45 253.628 100.636V87.7839C253.628 86.9703 254.289 86.3097 255.104 86.3097H261.396C262.211 86.3097 262.872 86.9703 262.872 87.7839V100.636C262.872 101.45 262.211 102.111 261.396 102.111ZM256.585 99.1568H259.92V89.2526H256.585V99.1568Z" fill="#3A5A7A"/>
<path d="M237.086 107.363H247.429C248.243 107.363 248.905 106.702 248.905 105.889C248.905 105.075 248.243 104.415 247.429 104.415H237.086C236.271 104.415 235.61 105.075 235.61 105.889C235.61 106.702 236.271 107.363 237.086 107.363Z" fill="#3A5A7A"/>
<path d="M245.401 102.111H239.109C238.294 102.111 237.633 101.45 237.633 100.636V87.7839C237.633 86.9703 238.294 86.3097 239.109 86.3097H245.401C246.215 86.3097 246.877 86.9703 246.877 87.7839V100.636C246.877 101.45 246.215 102.111 245.401 102.111ZM240.59 99.1568H243.925V89.2526H240.59V99.1568Z" fill="#3A5A7A"/>
<path d="M221.09 107.363H231.433C232.248 107.363 232.909 106.702 232.909 105.889C232.909 105.075 232.248 104.415 231.433 104.415H221.09C220.276 104.415 219.614 105.075 219.614 105.889C219.614 106.702 220.276 107.363 221.09 107.363Z" fill="#3A5A7A"/>
<path d="M229.41 102.111H223.118C222.304 102.111 221.642 101.45 221.642 100.636V87.7839C221.642 86.9703 222.304 86.3097 223.118 86.3097H229.41C230.225 86.3097 230.886 86.9703 230.886 87.7839V100.636C230.886 101.45 230.225 102.111 229.41 102.111ZM224.6 99.1568H227.934V89.2526H224.6V99.1568Z" fill="#3A5A7A"/>
<path d="M205.1 107.363H215.443C216.258 107.363 216.919 106.702 216.919 105.889C216.919 105.075 216.258 104.415 215.443 104.415H205.1C204.286 104.415 203.624 105.075 203.624 105.889C203.624 106.702 204.286 107.363 205.1 107.363Z" fill="#3A5A7A"/>
<path d="M213.415 102.111H207.123C206.308 102.111 205.647 101.45 205.647 100.636V87.7839C205.647 86.9703 206.308 86.3097 207.123 86.3097H213.415C214.23 86.3097 214.891 86.9703 214.891 87.7839V100.636C214.891 101.45 214.23 102.111 213.415 102.111ZM208.604 99.1568H211.939V89.2526H208.604V99.1568Z" fill="#3A5A7A"/>
<path d="M301.062 133.516H311.405C312.22 133.516 312.881 132.855 312.881 132.042C312.881 131.228 312.22 130.567 311.405 130.567H301.062C300.248 130.567 299.586 131.228 299.586 132.042C299.586 132.855 300.248 133.516 301.062 133.516Z" fill="#3A5A7A"/>
<path d="M309.377 128.263H303.09C302.276 128.263 301.614 127.603 301.614 126.789V113.937C301.614 113.123 302.276 112.462 303.09 112.462H309.377C310.191 112.462 310.853 113.123 310.853 113.937V126.789C310.853 127.603 310.191 128.263 309.377 128.263ZM304.566 125.31H307.901V115.405H304.566V125.31Z" fill="#3A5A7A"/>
<path d="M285.067 133.516H295.41C296.224 133.516 296.886 132.855 296.886 132.042C296.886 131.228 296.224 130.567 295.41 130.567H285.067C284.252 130.567 283.591 131.228 283.591 132.042C283.591 132.855 284.252 133.516 285.067 133.516Z" fill="#3A5A7A"/>
<path d="M293.387 128.263H287.1C286.286 128.263 285.624 127.603 285.624 126.789V113.937C285.624 113.123 286.286 112.462 287.1 112.462H293.387C294.201 112.462 294.863 113.123 294.863 113.937V126.789C294.863 127.603 294.201 128.263 293.387 128.263ZM288.576 125.31H291.911V115.405H288.576V125.31Z" fill="#3A5A7A"/>
<path d="M269.077 133.516H279.42C280.234 133.516 280.896 132.855 280.896 132.042C280.896 131.228 280.234 130.567 279.42 130.567H269.077C268.262 130.567 267.601 131.228 267.601 132.042C267.601 132.855 268.262 133.516 269.077 133.516Z" fill="#3A5A7A"/>
<path d="M277.391 128.263H271.105C270.29 128.263 269.629 127.603 269.629 126.789V113.937C269.629 113.123 270.29 112.462 271.105 112.462H277.391C278.206 112.462 278.867 113.123 278.867 113.937V126.789C278.867 127.603 278.206 128.263 277.391 128.263ZM272.581 125.31H275.915V115.405H272.581V125.31Z" fill="#3A5A7A"/>
<path d="M253.081 133.516H263.424C264.239 133.516 264.9 132.855 264.9 132.042C264.9 131.228 264.239 130.567 263.424 130.567H253.081C252.267 130.567 251.605 131.228 251.605 132.042C251.605 132.855 252.267 133.516 253.081 133.516Z" fill="#3A5A7A"/>
<path d="M261.396 128.263H255.104C254.289 128.263 253.628 127.603 253.628 126.789V113.937C253.628 113.123 254.289 112.462 255.104 112.462H261.396C262.211 112.462 262.872 113.123 262.872 113.937V126.789C262.872 127.603 262.211 128.263 261.396 128.263ZM256.585 125.31H259.92V115.405H256.585V125.31Z" fill="#3A5A7A"/>
<path d="M237.086 133.516H247.429C248.243 133.516 248.905 132.855 248.905 132.042C248.905 131.228 248.243 130.567 247.429 130.567H237.086C236.271 130.567 235.61 131.228 235.61 132.042C235.61 132.855 236.271 133.516 237.086 133.516Z" fill="#3A5A7A"/>
<path d="M245.401 128.263H239.109C238.294 128.263 237.633 127.603 237.633 126.789V113.937C237.633 113.123 238.294 112.462 239.109 112.462H245.401C246.215 112.462 246.877 113.123 246.877 113.937V126.789C246.877 127.603 246.215 128.263 245.401 128.263ZM240.59 125.31H243.925V115.405H240.59V125.31Z" fill="#3A5A7A"/>
<path d="M221.09 133.516H231.433C232.248 133.516 232.909 132.855 232.909 132.042C232.909 131.228 232.248 130.567 231.433 130.567H221.09C220.276 130.567 219.614 131.228 219.614 132.042C219.614 132.855 220.276 133.516 221.09 133.516Z" fill="#3A5A7A"/>
<path d="M229.41 128.263H223.118C222.304 128.263 221.642 127.603 221.642 126.789V113.937C221.642 113.123 222.304 112.462 223.118 112.462H229.41C230.225 112.462 230.886 113.123 230.886 113.937V126.789C230.886 127.603 230.225 128.263 229.41 128.263ZM224.6 125.31H227.934V115.405H224.6V125.31Z" fill="#3A5A7A"/>
<path d="M205.1 133.516H215.443C216.258 133.516 216.919 132.855 216.919 132.042C216.919 131.228 216.258 130.567 215.443 130.567H205.1C204.286 130.567 203.624 131.228 203.624 132.042C203.624 132.855 204.286 133.516 205.1 133.516Z" fill="#3A5A7A"/>
<path d="M213.415 128.263H207.123C206.308 128.263 205.647 127.603 205.647 126.789V113.937C205.647 113.123 206.308 112.462 207.123 112.462H213.415C214.23 112.462 214.891 113.123 214.891 113.937V126.789C214.891 127.603 214.23 128.263 213.415 128.263ZM208.604 125.31H211.939V115.405H208.604V125.31Z" fill="#3A5A7A"/>
<path d="M301.062 159.668H311.405C312.22 159.668 312.881 159.008 312.881 158.194C312.881 157.381 312.22 156.72 311.405 156.72H301.062C300.248 156.72 299.586 157.381 299.586 158.194C299.586 159.008 300.248 159.668 301.062 159.668Z" fill="#3A5A7A"/>
<path d="M309.377 154.416H303.09C302.276 154.416 301.614 153.755 301.614 152.942V140.089C301.614 139.276 302.276 138.615 303.09 138.615H309.377C310.191 138.615 310.853 139.276 310.853 140.089V152.942C310.853 153.755 310.191 154.416 309.377 154.416ZM304.566 151.462H307.901V141.558H304.566V151.462Z" fill="#3A5A7A"/>
<path d="M285.067 159.668H295.41C296.224 159.668 296.886 159.008 296.886 158.194C296.886 157.381 296.224 156.72 295.41 156.72H285.067C284.252 156.72 283.591 157.381 283.591 158.194C283.591 159.008 284.252 159.668 285.067 159.668Z" fill="#3A5A7A"/>
<path d="M293.387 154.416H287.1C286.286 154.416 285.624 153.755 285.624 152.942V140.089C285.624 139.276 286.286 138.615 287.1 138.615H293.387C294.201 138.615 294.863 139.276 294.863 140.089V152.942C294.863 153.755 294.201 154.416 293.387 154.416ZM288.576 151.462H291.911V141.558H288.576V151.462Z" fill="#3A5A7A"/>
<path d="M269.077 159.668H279.42C280.234 159.668 280.896 159.008 280.896 158.194C280.896 157.381 280.234 156.72 279.42 156.72H269.077C268.262 156.72 267.601 157.381 267.601 158.194C267.601 159.008 268.262 159.668 269.077 159.668Z" fill="#3A5A7A"/>
<path d="M277.391 154.416H271.105C270.29 154.416 269.629 153.755 269.629 152.942V140.089C269.629 139.276 270.29 138.615 271.105 138.615H277.391C278.206 138.615 278.867 139.276 278.867 140.089V152.942C278.867 153.755 278.206 154.416 277.391 154.416ZM272.581 151.462H275.915V141.558H272.581V151.462Z" fill="#3A5A7A"/>
<path d="M253.081 159.668H263.424C264.239 159.668 264.9 159.008 264.9 158.194C264.9 157.381 264.239 156.72 263.424 156.72H253.081C252.267 156.72 251.605 157.381 251.605 158.194C251.605 159.008 252.267 159.668 253.081 159.668Z" fill="#3A5A7A"/>
<path d="M261.396 154.416H255.104C254.289 154.416 253.628 153.755 253.628 152.942V140.089C253.628 139.276 254.289 138.615 255.104 138.615H261.396C262.211 138.615 262.872 139.276 262.872 140.089V152.942C262.872 153.755 262.211 154.416 261.396 154.416ZM256.585 151.462H259.92V141.558H256.585V151.462Z" fill="#3A5A7A"/>
<path d="M237.086 159.668H247.429C248.243 159.668 248.905 159.008 248.905 158.194C248.905 157.381 248.243 156.72 247.429 156.72H237.086C236.271 156.72 235.61 157.381 235.61 158.194C235.61 159.008 236.271 159.668 237.086 159.668Z" fill="#3A5A7A"/>
<path d="M245.401 154.416H239.109C238.294 154.416 237.633 153.755 237.633 152.942V140.089C237.633 139.276 238.294 138.615 239.109 138.615H245.401C246.215 138.615 246.877 139.276 246.877 140.089V152.942C246.877 153.755 246.215 154.416 245.401 154.416ZM240.59 151.462H243.925V141.558H240.59V151.462Z" fill="#3A5A7A"/>
<path d="M221.09 159.668H231.433C232.248 159.668 232.909 159.008 232.909 158.194C232.909 157.381 232.248 156.72 231.433 156.72H221.09C220.276 156.72 219.614 157.381 219.614 158.194C219.614 159.008 220.276 159.668 221.09 159.668Z" fill="#3A5A7A"/>
<path d="M229.41 154.416H223.118C222.304 154.416 221.642 153.755 221.642 152.942V140.089C221.642 139.276 222.304 138.615 223.118 138.615H229.41C230.225 138.615 230.886 139.276 230.886 140.089V152.942C230.886 153.755 230.225 154.416 229.41 154.416ZM224.6 151.462H227.934V141.558H224.6V151.462Z" fill="#3A5A7A"/>
<path d="M205.1 159.668H215.443C216.258 159.668 216.919 159.008 216.919 158.194C216.919 157.381 216.258 156.72 215.443 156.72H205.1C204.286 156.72 203.624 157.381 203.624 158.194C203.624 159.008 204.286 159.668 205.1 159.668Z" fill="#3A5A7A"/>
<path d="M213.415 154.416H207.123C206.308 154.416 205.647 153.755 205.647 152.942V140.089C205.647 139.276 206.308 138.615 207.123 138.615H213.415C214.23 138.615 214.891 139.276 214.891 140.089V152.942C214.891 153.755 214.23 154.416 213.415 154.416ZM208.604 151.462H211.939V141.558H208.604V151.462Z" fill="#3A5A7A"/>
<path d="M301.062 185.821H311.405C312.22 185.821 312.881 185.161 312.881 184.347C312.881 183.534 312.22 182.873 311.405 182.873H301.062C300.248 182.873 299.586 183.534 299.586 184.347C299.586 185.161 300.248 185.821 301.062 185.821Z" fill="#3A5A7A"/>
<path d="M309.377 180.569H303.09C302.276 180.569 301.614 179.908 301.614 179.095V166.242C301.614 165.429 302.276 164.768 303.09 164.768H309.377C310.191 164.768 310.853 165.429 310.853 166.242V179.095C310.853 179.908 310.191 180.569 309.377 180.569ZM304.566 177.615H307.901V167.711H304.566V177.615Z" fill="#3A5A7A"/>
<path d="M285.067 185.821H295.41C296.224 185.821 296.886 185.161 296.886 184.347C296.886 183.534 296.224 182.873 295.41 182.873H285.067C284.252 182.873 283.591 183.534 283.591 184.347C283.591 185.161 284.252 185.821 285.067 185.821Z" fill="#3A5A7A"/>
<path d="M293.387 180.569H287.1C286.286 180.569 285.624 179.908 285.624 179.095V166.242C285.624 165.429 286.286 164.768 287.1 164.768H293.387C294.201 164.768 294.863 165.429 294.863 166.242V179.095C294.863 179.908 294.201 180.569 293.387 180.569ZM288.576 177.615H291.911V167.711H288.576V177.615Z" fill="#3A5A7A"/>
<path d="M269.077 185.821H279.42C280.234 185.821 280.896 185.161 280.896 184.347C280.896 183.534 280.234 182.873 279.42 182.873H269.077C268.262 182.873 267.601 183.534 267.601 184.347C267.601 185.161 268.262 185.821 269.077 185.821Z" fill="#3A5A7A"/>
<path d="M277.391 180.569H271.105C270.29 180.569 269.629 179.908 269.629 179.095V166.242C269.629 165.429 270.29 164.768 271.105 164.768H277.391C278.206 164.768 278.867 165.429 278.867 166.242V179.095C278.867 179.908 278.206 180.569 277.391 180.569ZM272.581 177.615H275.915V167.711H272.581V177.615Z" fill="#3A5A7A"/>
<path d="M253.081 185.821H263.424C264.239 185.821 264.9 185.161 264.9 184.347C264.9 183.534 264.239 182.873 263.424 182.873H253.081C252.267 182.873 251.605 183.534 251.605 184.347C251.605 185.161 252.267 185.821 253.081 185.821Z" fill="#3A5A7A"/>
<path d="M261.396 180.569H255.104C254.289 180.569 253.628 179.908 253.628 179.095V166.242C253.628 165.429 254.289 164.768 255.104 164.768H261.396C262.211 164.768 262.872 165.429 262.872 166.242V179.095C262.872 179.908 262.211 180.569 261.396 180.569ZM256.585 177.615H259.92V167.711H256.585V177.615Z" fill="#3A5A7A"/>
<path d="M237.086 185.821H247.429C248.243 185.821 248.905 185.161 248.905 184.347C248.905 183.534 248.243 182.873 247.429 182.873H237.086C236.271 182.873 235.61 183.534 235.61 184.347C235.61 185.161 236.271 185.821 237.086 185.821Z" fill="#3A5A7A"/>
<path d="M245.401 180.569H239.109C238.294 180.569 237.633 179.908 237.633 179.095V166.242C237.633 165.429 238.294 164.768 239.109 164.768H245.401C246.215 164.768 246.877 165.429 246.877 166.242V179.095C246.877 179.908 246.215 180.569 245.401 180.569ZM240.59 177.615H243.925V167.711H240.59V177.615Z" fill="#3A5A7A"/>
<path d="M221.09 185.821H231.433C232.248 185.821 232.909 185.161 232.909 184.347C232.909 183.534 232.248 182.873 231.433 182.873H221.09C220.276 182.873 219.614 183.534 219.614 184.347C219.614 185.161 220.276 185.821 221.09 185.821Z" fill="#3A5A7A"/>
<path d="M229.41 180.569H223.118C222.304 180.569 221.642 179.908 221.642 179.095V166.242C221.642 165.429 222.304 164.768 223.118 164.768H229.41C230.225 164.768 230.886 165.429 230.886 166.242V179.095C230.886 179.908 230.225 180.569 229.41 180.569ZM224.6 177.615H227.934V167.711H224.6V177.615Z" fill="#3A5A7A"/>
<path d="M205.1 185.821H215.443C216.258 185.821 216.919 185.161 216.919 184.347C216.919 183.534 216.258 182.873 215.443 182.873H205.1C204.286 182.873 203.624 183.534 203.624 184.347C203.624 185.161 204.286 185.821 205.1 185.821Z" fill="#3A5A7A"/>
<path d="M213.415 180.569H207.123C206.308 180.569 205.647 179.908 205.647 179.095V166.242C205.647 165.429 206.308 164.768 207.123 164.768H213.415C214.23 164.768 214.891 165.429 214.891 166.242V179.095C214.891 179.908 214.23 180.569 213.415 180.569ZM208.604 177.615H211.939V167.711H208.604V177.615Z" fill="#3A5A7A"/>
<path d="M203.285 81.2102H312.351C313.165 81.2102 313.827 80.5495 313.827 79.736C313.827 78.9225 313.165 78.2618 312.351 78.2618H203.285C202.471 78.2618 201.809 78.9225 201.809 79.736C201.809 80.5495 202.471 81.2102 203.285 81.2102Z" fill="#3A5A7A"/>
<path d="M271.712 67.7079H246.188V73.2934H271.712V67.7079Z" fill="white"/>
<path d="M271.679 74.773H246.226C245.39 74.773 244.712 74.0959 244.712 73.2606V67.7461C244.712 66.9108 245.39 66.2337 246.226 66.2337H271.679C272.515 66.2337 273.193 66.9108 273.193 67.7461V73.2606C273.193 74.0959 272.515 74.773 271.679 74.773ZM247.669 71.8192H270.241V69.1821H247.669V71.8192Z" fill="#3A5A7A"/>
<path d="M289.872 106.757H230.651V250.521H289.872V106.757Z" fill="white"/>
<path d="M230.548 186.1H219.084V197.549H230.548V186.1Z" fill="white"/>
<path d="M230.509 199.029H219.117C218.28 199.029 217.603 198.352 217.603 197.516V186.138C217.603 185.303 218.28 184.626 219.117 184.626H230.509C231.346 184.626 232.024 185.303 232.024 186.138V197.516C232.024 198.352 231.346 199.029 230.509 199.029ZM220.56 196.075H229.072V187.574H220.56V196.075Z" fill="#3A5A7A"/>
<path d="M219.024 186.1H207.56V197.549H219.024V186.1Z" fill="white"/>
<path d="M218.985 199.029H207.593C206.756 199.029 206.079 198.352 206.079 197.516V186.138C206.079 185.303 206.756 184.626 207.593 184.626H218.985C219.822 184.626 220.5 185.303 220.5 186.138V197.516C220.5 198.352 219.822 199.029 218.985 199.029ZM209.036 196.075H217.548V187.574H209.036V196.075Z" fill="#3A5A7A"/>
<path d="M230.548 197.926H219.084V209.375H230.548V197.926Z" fill="white"/>
<path d="M230.509 210.849H219.117C218.28 210.849 217.603 210.172 217.603 209.337V197.959C217.603 197.123 218.28 196.446 219.117 196.446H230.509C231.346 196.446 232.024 197.123 232.024 197.959V209.337C232.024 210.172 231.346 210.849 230.509 210.849ZM220.56 207.896H229.072V199.395H220.56V207.896Z" fill="#3A5A7A"/>
<path d="M206.511 129.863H156.808V250.521H206.511V129.863Z" fill="white"/>
<path d="M206.472 252H156.846C156.009 252 155.332 251.323 155.332 250.488V129.901C155.332 129.066 156.009 128.389 156.846 128.389H206.472C207.309 128.389 207.986 129.066 207.986 129.901V250.488C207.986 251.323 207.309 252 206.472 252ZM158.284 249.047H205.029V131.337H158.284V249.047Z" fill="#3A5A7A"/>
<path d="M219.024 197.926H207.56V209.375H219.024V197.926Z" fill="white"/>
<path d="M218.985 210.849H207.593C206.756 210.849 206.079 210.172 206.079 209.337V197.959C206.079 197.123 206.756 196.446 207.593 196.446H218.985C219.822 196.446 220.5 197.123 220.5 197.959V209.337C220.5 210.172 219.822 210.849 218.985 210.849ZM209.036 207.896H217.548V199.395H209.036V207.896Z" fill="#3A5A7A"/>
<path d="M230.548 209.747H219.084V221.196H230.548V209.747Z" fill="white"/>
<path d="M230.509 222.675H219.117C218.28 222.675 217.603 221.998 217.603 221.163V209.785C217.603 208.949 218.28 208.272 219.117 208.272H230.509C231.346 208.272 232.024 208.949 232.024 209.785V221.163C232.024 221.998 231.346 222.675 230.509 222.675ZM220.56 219.722H229.072V211.221H220.56V219.722Z" fill="#3A5A7A"/>
<path d="M219.024 209.747H207.56V221.196H219.024V209.747Z" fill="white"/>
<path d="M218.985 222.675H207.593C206.756 222.675 206.079 221.998 206.079 221.163V209.785C206.079 208.949 206.756 208.272 207.593 208.272H218.985C219.822 208.272 220.5 208.949 220.5 209.785V221.163C220.5 221.998 219.822 222.675 218.985 222.675ZM209.036 219.722H217.548V211.221H209.036V219.722Z" fill="#3A5A7A"/>
<path d="M230.548 221.573H219.084V233.022H230.548V221.573Z" fill="white"/>
<path d="M230.509 234.496H219.117C218.28 234.496 217.603 233.819 217.603 232.984V221.605C217.603 220.77 218.28 220.093 219.117 220.093H230.509C231.346 220.093 232.024 220.77 232.024 221.605V232.984C232.024 233.819 231.346 234.496 230.509 234.496ZM220.56 231.542H229.072V223.041H220.56V231.542Z" fill="#3A5A7A"/>
<path d="M219.024 221.573H207.56V233.022H219.024V221.573Z" fill="white"/>
<path d="M218.985 234.496H207.593C206.756 234.496 206.079 233.819 206.079 232.984V221.605C206.079 220.77 206.756 220.093 207.593 220.093H218.985C219.822 220.093 220.5 220.77 220.5 221.605V232.984C220.5 233.819 219.822 234.496 218.985 234.496ZM209.036 231.542H217.548V223.041H209.036V231.542Z" fill="#3A5A7A"/>
<path d="M230.548 232.831H219.084V244.28H230.548V232.831Z" fill="white"/>
<path d="M230.509 245.76H219.117C218.28 245.76 217.603 245.083 217.603 244.247V232.869C217.603 232.034 218.28 231.357 219.117 231.357H230.509C231.346 231.357 232.024 232.034 232.024 232.869V244.247C232.024 245.083 231.346 245.76 230.509 245.76ZM220.56 242.806H229.072V234.305H220.56V242.806Z" fill="#3A5A7A"/>
<path d="M219.024 232.831H207.56V244.28H219.024V232.831Z" fill="white"/>
<path d="M218.985 245.76H207.593C206.756 245.76 206.079 245.083 206.079 244.247V232.869C206.079 232.034 206.756 231.357 207.593 231.357H218.985C219.822 231.357 220.5 232.034 220.5 232.869V244.247C220.5 245.083 219.822 245.76 218.985 245.76ZM209.036 242.806H217.548V234.305H209.036V242.806Z" fill="#3A5A7A"/>
<path d="M289.877 252H230.657C229.842 252 229.181 251.34 229.181 250.526V105.223C229.181 104.409 229.842 103.749 230.657 103.749H289.877C290.692 103.749 291.353 104.409 291.353 105.223V250.521C291.353 251.334 290.692 251.995 289.877 251.995V252ZM232.133 249.047H288.396V106.697H232.133V249.047Z" fill="#3A5A7A"/>
<path d="M237.851 135.978H281.77C282.585 135.978 283.246 135.318 283.246 134.504C283.246 133.69 282.585 133.03 281.77 133.03H237.851C237.036 133.03 236.375 133.69 236.375 134.504C236.375 135.318 237.036 135.978 237.851 135.978Z" fill="#3A5A7A"/>
<path d="M237.851 129.142H281.77C282.585 129.142 283.246 128.482 283.246 127.668C283.246 126.855 282.585 126.194 281.77 126.194H237.851C237.036 126.194 236.375 126.855 236.375 127.668C236.375 128.482 237.036 129.142 237.851 129.142Z" fill="#3A5A7A"/>
<path d="M240.174 250.887C240.989 250.887 241.65 250.226 241.65 249.412V142.039C241.65 141.225 240.989 140.564 240.174 140.564C239.36 140.564 238.698 141.225 238.698 142.039V249.412C238.698 250.226 239.36 250.887 240.174 250.887Z" fill="#3A5A7A"/>
<path d="M250.233 250.887C251.047 250.887 251.709 250.226 251.709 249.412V142.039C251.709 141.225 251.047 140.564 250.233 140.564C249.418 140.564 248.757 141.225 248.757 142.039V249.412C248.757 250.226 249.418 250.887 250.233 250.887Z" fill="#3A5A7A"/>
<path d="M260.297 250.887C261.112 250.887 261.773 250.226 261.773 249.412V142.039C261.773 141.225 261.112 140.564 260.297 140.564C259.483 140.564 258.821 141.225 258.821 142.039V249.412C258.821 250.226 259.483 250.887 260.297 250.887Z" fill="#3A5A7A"/>
<path d="M270.361 250.887C271.176 250.887 271.837 250.226 271.837 249.412V142.039C271.837 141.225 271.176 140.564 270.361 140.564C269.547 140.564 268.885 141.225 268.885 142.039V249.412C268.885 250.226 269.547 250.887 270.361 250.887Z" fill="#3A5A7A"/>
<path d="M280.42 250.887C281.234 250.887 281.896 250.226 281.896 249.412V142.039C281.896 141.225 281.234 140.564 280.42 140.564C279.605 140.564 278.944 141.225 278.944 142.039V249.412C278.944 250.226 279.605 250.887 280.42 250.887Z" fill="#3A5A7A"/>
<path d="M344.025 218.34H264.698V250.69H344.025V218.34Z" fill="white"/>
<path d="M343.992 252.164H264.736C263.9 252.164 263.222 251.487 263.222 250.652V218.379C263.222 217.543 263.9 216.866 264.736 216.866H343.992C344.828 216.866 345.506 217.543 345.506 218.379V250.652C345.506 251.487 344.828 252.164 343.992 252.164ZM266.179 249.21H342.549V219.815H266.179V249.21Z" fill="#3A5A7A"/>
<path d="M261.073 218.013H346.517L344.025 203.648H263.561L261.073 218.013Z" fill="white"/>
<path d="M346.517 219.487H261.068C260.631 219.487 260.221 219.296 259.936 218.963C259.658 218.63 259.537 218.187 259.608 217.762L262.101 203.397C262.221 202.687 262.839 202.174 263.555 202.174H344.019C344.735 202.174 345.353 202.692 345.473 203.397L347.966 217.762C348.043 218.193 347.922 218.63 347.638 218.963C347.359 219.296 346.944 219.487 346.507 219.487H346.517ZM262.828 216.533H344.763L342.784 205.122H264.807L262.828 216.533Z" fill="#3A5A7A"/>
<path d="M300.253 226.705H290.041V239.006H300.253V226.705Z" fill="white"/>
<path d="M282.437 227.431H272.225V239.006H282.437V227.431Z" fill="white"/>
<path d="M300.253 227.431H290.041V239.006H300.253V227.431Z" fill="white"/>
<path d="M300.215 240.48H290.074C289.238 240.48 288.56 239.803 288.56 238.968V227.469C288.56 226.634 289.238 225.957 290.074 225.957H300.215C301.051 225.957 301.729 226.634 301.729 227.469V238.968C301.729 239.803 301.051 240.48 300.215 240.48ZM291.517 237.526H298.777V228.905H291.517V237.526Z" fill="#3A5A7A"/>
<path d="M317.987 227.431H307.775V239.006H317.987V227.431Z" fill="white"/>
<path d="M317.954 240.48H307.813C306.977 240.48 306.299 239.803 306.299 238.968V227.469C306.299 226.634 306.977 225.957 307.813 225.957H317.954C318.79 225.957 319.468 226.634 319.468 227.469V238.968C319.468 239.803 318.79 240.48 317.954 240.48ZM309.257 237.526H316.516V228.905H309.257V237.526Z" fill="#3A5A7A"/>
<path d="M335.852 227.431H325.64V239.006H335.852V227.431Z" fill="white"/>
<path d="M335.814 240.48H325.673C324.837 240.48 324.159 239.803 324.159 238.968V227.469C324.159 226.634 324.837 225.957 325.673 225.957H335.814C336.65 225.957 337.328 226.634 337.328 227.469V238.968C337.328 239.803 336.65 240.48 335.814 240.48ZM327.116 237.526H334.376V228.905H327.116V237.526Z" fill="#3A5A7A"/>
<path d="M282.437 227.431H272.225V239.006H282.437V227.431Z" fill="white"/>
<path d="M282.399 240.48H272.258C271.422 240.48 270.744 239.803 270.744 238.968V227.469C270.744 226.634 271.422 225.957 272.258 225.957H282.399C283.235 225.957 283.913 226.634 283.913 227.469V238.968C283.913 239.803 283.235 240.48 282.399 240.48ZM273.701 237.526H280.961V228.905H273.701V237.526Z" fill="#3A5A7A"/>
<path d="M59.6539 226.705C58.8229 226.705 58.156 226.033 58.156 225.203C58.156 224.373 58.8284 223.702 59.6539 223.702C60.4793 223.702 61.1572 224.373 61.1572 225.203C61.1572 226.033 60.4848 226.705 59.6539 226.705Z" fill="#3A5A7A"/>
<path d="M30.1066 228.201C29.2757 228.201 28.6033 227.529 28.6033 226.705C28.6033 225.88 29.2757 225.203 30.1066 225.203C30.9375 225.203 31.6045 225.875 31.6045 226.705C31.6045 227.535 30.9321 228.201 30.1066 228.201Z" fill="#3A5A7A"/>
<path d="M93.3286 242.85C98.0791 240.835 101.173 236.26 101.277 231.144C101.075 224.161 95.3294 218.537 88.2883 218.537C84.079 218.537 80.3288 220.546 77.9563 223.658V219.225C80.7552 216.877 84.3578 215.452 88.2883 215.452C97.0295 215.452 104.163 222.457 104.366 231.144C104.262 237.494 100.435 243.183 94.5367 245.683C93.755 246.016 92.8475 245.651 92.514 244.864C92.1806 244.078 92.5468 243.177 93.3286 242.844V242.85Z" fill="#3A5A7A"/>
<path d="M89.7862 230.581C89.7862 231.411 89.1138 232.083 88.2829 232.083C87.4519 232.083 86.7795 231.411 86.7795 230.581C86.7795 229.751 87.4519 229.08 88.2829 229.08C89.1138 229.08 89.7862 229.751 89.7862 230.581Z" fill="#3A5A7A"/>
<path d="M30.1066 203.178C34.4854 203.178 38.4597 204.936 41.3625 207.781V212.766C39.1102 208.884 34.9118 206.263 30.1066 206.263C22.9398 206.263 17.1069 212.089 17.1069 219.247V230.887C17.1069 237.526 22.1198 243.008 28.565 243.778V232.367C28.565 231.515 29.2538 230.827 30.1066 230.827C30.9594 230.827 31.6482 231.515 31.6482 232.367V252.039C31.6482 252.89 30.9594 253.578 30.1066 253.578C29.2538 253.578 28.565 252.89 28.565 252.039V246.879C20.4142 246.098 14.0237 239.224 14.0237 230.887V219.247C14.0237 210.385 21.2397 203.178 30.1121 203.178H30.1066Z" fill="#3A5A7A"/>
<path d="M35.1468 242.85C38.3338 241.496 40.772 238.99 42.0676 235.948C42.4393 237.248 42.9477 238.487 43.5818 239.656C41.8653 242.282 39.3834 244.406 36.3549 245.694C35.5732 246.027 34.6657 245.662 34.3322 244.875C33.9988 244.089 34.365 243.188 35.1522 242.855L35.1468 242.85Z" fill="#3A5A7A"/>
<path d="M86.7413 243.778V236.778C86.7413 235.927 87.4301 235.239 88.2829 235.239C89.1357 235.239 89.8245 235.927 89.8245 236.778V252.039C89.8245 252.89 89.1357 253.578 88.2829 253.578C87.4301 253.578 86.7413 252.89 86.7413 252.039V246.879C82.0509 246.431 77.94 243.958 75.2996 240.349C75.9282 239.317 76.453 238.22 76.8685 237.073C78.8365 240.688 82.4718 243.265 86.7413 243.772V243.778Z" fill="#3A5A7A"/>
<path d="M43.571 200.022C43.571 191.161 50.787 183.954 59.6594 183.954C68.5318 183.954 75.7478 191.161 75.7478 200.022V230.887C75.7478 237.341 71.8884 243.15 65.9133 245.683C65.1261 246.016 64.2241 245.651 63.8906 244.864C63.5572 244.078 63.9234 243.177 64.7106 242.844C69.5432 240.791 72.6646 236.101 72.6646 230.887V200.022C72.6646 192.865 66.8317 187.039 59.6649 187.039C52.4981 187.039 46.6652 192.865 46.6652 200.022V230.887C46.6652 237.526 51.6781 243.008 58.1178 243.778V232.367C58.1178 231.515 58.8066 230.827 59.6594 230.827C60.5122 230.827 61.201 231.515 61.201 232.367V252.039C61.201 252.89 60.5122 253.578 59.6594 253.578C58.8066 253.578 58.1178 252.89 58.1178 252.039V246.879C49.967 246.098 43.5765 239.224 43.5765 230.887V200.022H43.571Z" fill="#3A5A7A"/>
<path d="M17.9216 195.824H18.1458C18.5558 195.824 18.9494 195.66 19.2391 195.371C19.5288 195.081 19.6928 194.688 19.6928 194.279C19.6928 193.241 20.1028 192.269 20.8518 191.538C21.5734 190.828 22.53 190.451 23.4758 190.473C24.334 190.495 25.0338 189.818 25.0556 188.966C25.072 188.114 24.3996 187.41 23.5468 187.388C21.7702 187.361 19.999 188.06 18.6979 189.332C18.4628 189.561 18.2442 189.807 18.0474 190.064C17.8506 189.807 17.6319 189.561 17.3968 189.332C16.0958 188.054 14.33 187.356 12.5479 187.388C11.6951 187.405 11.0172 188.109 11.0391 188.966C11.0555 189.807 11.7443 190.473 12.5807 190.473C12.619 190.473 12.6518 190.473 12.69 190.473C13.6303 190.473 14.5323 190.85 15.2375 191.538C15.9864 192.269 16.3964 193.241 16.3964 194.279C16.3964 194.688 16.5604 195.081 16.8502 195.371C17.1399 195.66 17.5335 195.824 17.9435 195.824H17.9216Z" fill="#3A5A7A"/>
<path d="M3.18881 186.498H3.41294C3.82294 186.498 4.21654 186.335 4.50627 186.045C4.79601 185.756 4.96001 185.363 4.96001 184.953C4.96001 183.916 5.37001 182.944 6.11894 182.212C6.84054 181.503 7.76987 181.126 8.74294 181.148C9.60667 181.186 10.3009 180.492 10.3173 179.641C10.3337 178.789 9.66134 178.085 8.80854 178.068C7.03187 178.025 5.26067 178.74 3.95961 180.017C3.72454 180.247 3.50587 180.492 3.30907 180.749C3.11227 180.492 2.89361 180.247 2.65854 180.017C1.35747 178.74 -0.430125 178.03 -2.19039 178.068C-3.04319 178.085 -3.72106 178.794 -3.69919 179.641C-3.68279 180.482 -2.99399 181.148 -2.15759 181.148C-2.11933 181.148 -2.08653 181.148 -2.04826 181.148C-1.10799 181.148 -0.205992 181.524 0.499208 182.218C1.24814 182.949 1.65814 183.921 1.65814 184.959C1.65814 185.368 1.82214 185.761 2.11188 186.051C2.40161 186.34 2.79521 186.504 3.20521 186.504L3.18881 186.498Z" fill="#3A5A7A"/>
<path d="M2.88815 202.321H3.03028C3.44028 202.321 3.83388 202.157 4.12362 201.868C4.41335 201.579 4.57735 201.185 4.57735 200.776C4.57735 200.279 4.77415 199.815 5.13495 199.46C5.47935 199.122 5.93855 198.952 6.37042 198.952H6.40322C7.23962 198.952 7.92842 198.286 7.94482 197.445C7.96122 196.594 7.28882 195.889 6.43602 195.873C5.15135 195.84 3.89948 196.353 2.97562 197.26C2.97562 197.26 2.97562 197.26 2.96468 197.265C2.96468 197.265 2.96468 197.265 2.95922 197.26C2.02988 196.348 0.772549 195.835 -0.501184 195.873C-1.35398 195.889 -2.03185 196.599 -2.00998 197.445C-1.99358 198.297 -1.28292 198.985 -0.430117 198.952C0.00174952 198.952 0.460951 199.122 0.805351 199.46C1.16615 199.81 1.36295 200.279 1.36295 200.77C1.36295 201.18 1.52695 201.573 1.81668 201.862C2.10642 202.152 2.50002 202.316 2.91002 202.316L2.88815 202.321Z" fill="#3A5A7A"/>
<path d="M40.7611 156.556H55.9803C56.8331 156.556 57.5219 155.868 57.5219 155.017C57.5219 154.165 56.8331 153.477 55.9803 153.477H40.7611C39.9083 153.477 39.2195 154.165 39.2195 155.017C39.2195 155.868 39.9083 156.556 40.7611 156.556Z" fill="#3A5A7A"/>
<path d="M33.66 155.639C34.5128 155.639 35.2016 154.951 35.2016 154.099C35.2016 153.248 34.5128 152.56 33.66 152.56C28.5541 152.56 24.3995 148.41 24.3995 143.305C24.3995 138.2 28.5541 134.056 33.66 134.056C38.7659 134.056 42.926 138.206 42.926 143.305C42.926 144.157 43.6148 144.845 44.4676 144.845C45.3204 144.845 46.0092 144.157 46.0092 143.305C46.0092 136.502 40.466 130.971 33.66 130.971C26.854 130.971 21.3108 136.508 21.3108 143.305C21.3108 150.103 26.854 155.639 33.66 155.639Z" fill="#3A5A7A"/>
<path d="M33.5726 151.124H47.2338C48.0866 151.124 48.7754 150.436 48.7754 149.584C48.7754 148.732 48.0866 148.044 47.2338 148.044H33.5726C32.7198 148.044 32.031 148.732 32.031 149.584C32.031 150.436 32.7198 151.124 33.5726 151.124Z" fill="#3A5A7A"/>
<path d="M33.966 151.124C34.8188 151.124 35.5076 150.436 35.5076 149.584C35.5076 148.732 34.8188 148.044 33.966 148.044C31.5661 148.044 29.62 146.095 29.62 143.704C29.62 141.312 31.5716 139.363 33.966 139.363C36.3604 139.363 38.312 141.312 38.312 143.704C38.312 144.556 39.0008 145.244 39.8536 145.244C40.7064 145.244 41.3952 144.556 41.3952 143.704C41.3952 139.609 38.0605 136.278 33.9605 136.278C29.8605 136.278 26.5259 139.609 26.5259 143.704C26.5259 147.799 29.8605 151.129 33.9605 151.129L33.966 151.124Z" fill="#3A5A7A"/>
<path d="M67.1071 107.927C71.9482 106.456 74.6788 101.344 73.2061 96.5094C71.7334 91.6743 66.6151 88.9471 61.7741 90.4179C56.933 91.8888 54.2024 97.0007 55.6751 101.836C57.1477 106.671 62.266 109.398 67.1071 107.927Z" fill="white"/>
<path d="M75.2122 91.3164C74.5726 90.5083 73.8401 89.7767 73.031 89.1379L74.4031 87.7675C75.0045 87.1669 75.983 87.1669 76.5843 87.7675C77.1857 88.3681 77.1857 89.3454 76.5843 89.946L75.2122 91.3164Z" fill="#3A5A7A"/>
<path d="M63.262 86.3643V84.4315C63.262 83.5798 63.9508 82.8918 64.8036 82.8918C65.6564 82.8918 66.3452 83.5798 66.3452 84.4315V86.3643C65.8368 86.3042 65.3229 86.2715 64.8036 86.2715C64.2842 86.2715 63.7649 86.3042 63.262 86.3643Z" fill="#3A5A7A"/>
<path d="M79.9188 97.9829C80.7716 97.9829 81.4604 98.6708 81.4604 99.5226C81.4604 100.374 80.7716 101.062 79.9188 101.062H77.9836C78.0438 100.555 78.0766 100.041 78.0766 99.5226C78.0766 99.0039 78.0438 98.4852 77.9836 97.9829H79.9188Z" fill="#3A5A7A"/>
<path d="M55.215 87.762L56.5871 89.1324C55.778 89.7713 55.0455 90.5029 54.4059 91.3109L53.0338 89.9405C52.4324 89.3399 52.4324 88.3626 53.0338 87.762C53.6351 87.1614 54.6136 87.1614 55.215 87.762Z" fill="#3A5A7A"/>
<path d="M49.6937 97.9829H51.6289C51.5688 98.4907 51.536 99.0039 51.536 99.5226C51.536 100.041 51.5688 100.56 51.6289 101.062H49.6937C48.8409 101.062 48.1521 100.374 48.1521 99.5226C48.1521 98.6708 48.8409 97.9829 49.6937 97.9829Z" fill="#3A5A7A"/>
<path d="M54.406 107.734C55.0456 108.542 55.7781 109.274 56.5872 109.913L55.2151 111.283C54.9144 111.583 54.5208 111.736 54.1217 111.736C53.7227 111.736 53.3291 111.583 53.0284 111.283C52.4271 110.683 52.4271 109.705 53.0284 109.105L54.4005 107.734H54.406Z" fill="#3A5A7A"/>
<path d="M75.2121 107.734L76.5842 109.105C77.1855 109.705 77.1855 110.683 76.5842 111.283C76.2835 111.583 75.8899 111.736 75.4909 111.736C75.0918 111.736 74.6982 111.583 74.3975 111.283L73.0254 109.913C73.8345 109.274 74.567 108.542 75.2066 107.734H75.2121Z" fill="#3A5A7A"/>
<path d="M66.3505 112.686V114.619C66.3505 115.471 65.6617 116.159 64.8089 116.159C63.9561 116.159 63.2673 115.471 63.2673 114.619V112.686C63.7757 112.746 64.2896 112.779 64.8089 112.779C65.3283 112.779 65.8476 112.746 66.3505 112.686Z" fill="#3A5A7A"/>
<path d="M54.1052 99.528C54.1052 105.419 58.905 110.218 64.809 110.218C70.713 110.218 75.5127 105.425 75.5127 99.528C75.5127 93.6314 70.713 88.8376 64.809 88.8376C58.905 88.8376 54.1052 93.6314 54.1052 99.528ZM57.1064 99.528C57.1064 95.2857 60.5614 91.8405 64.809 91.8405C69.0566 91.8405 72.5115 95.2912 72.5115 99.528C72.5115 103.765 69.0566 107.221 64.809 107.221C60.5614 107.221 57.1064 103.77 57.1064 99.528Z" fill="#3A5A7A"/>
<path d="M147.126 184.32C148.624 184.32 149.843 185.532 149.843 187.033C149.843 188.535 148.63 189.747 147.126 189.747C145.623 189.747 144.409 188.535 144.409 187.033C144.409 185.532 145.623 184.32 147.126 184.32Z" fill="#3A5A7A"/>
<path d="M139.254 184.32C140.752 184.32 141.971 185.532 141.971 187.033C141.971 188.535 140.758 189.747 139.254 189.747C137.751 189.747 136.537 188.535 136.537 187.033C136.537 185.532 137.751 184.32 139.254 184.32Z" fill="#3A5A7A"/>
<path d="M131.382 184.32C132.88 184.32 134.099 185.532 134.099 187.033C134.099 188.535 132.886 189.747 131.382 189.747C129.879 189.747 128.665 188.535 128.665 187.033C128.665 185.532 129.879 184.32 131.382 184.32Z" fill="#3A5A7A"/>
<path d="M123.505 189.742C122.007 189.742 120.788 188.529 120.788 187.028C120.788 185.526 122.001 184.314 123.505 184.314C125.008 184.314 126.222 185.526 126.222 187.028C126.222 188.529 125.008 189.742 123.505 189.742Z" fill="#3A5A7A"/>
<path d="M147.126 193.094C148.624 193.094 149.843 194.306 149.843 195.807C149.843 197.309 148.63 198.521 147.126 198.521C145.623 198.521 144.409 197.309 144.409 195.807C144.409 194.306 145.623 193.094 147.126 193.094Z" fill="#3A5A7A"/>
<path d="M139.254 193.094C140.752 193.094 141.971 194.306 141.971 195.807C141.971 197.309 140.758 198.521 139.254 198.521C137.751 198.521 136.537 197.309 136.537 195.807C136.537 194.306 137.751 193.094 139.254 193.094Z" fill="#3A5A7A"/>
<path d="M131.382 193.094C132.88 193.094 134.099 194.306 134.099 195.807C134.099 197.309 132.886 198.521 131.382 198.521C129.879 198.521 128.665 197.309 128.665 195.807C128.665 194.306 129.879 193.094 131.382 193.094Z" fill="#3A5A7A"/>
<path d="M123.505 193.094C125.003 193.094 126.222 194.306 126.222 195.807C126.222 197.309 125.008 198.521 123.505 198.521C122.001 198.521 120.788 197.309 120.788 195.807C120.788 194.306 122.001 193.094 123.505 193.094Z" fill="#3A5A7A"/>
<path d="M147.126 201.873C148.624 201.873 149.843 203.085 149.843 204.587C149.843 206.088 148.63 207.3 147.126 207.3C145.623 207.3 144.409 206.088 144.409 204.587C144.409 203.085 145.623 201.873 147.126 201.873Z" fill="#3A5A7A"/>
<path d="M139.254 201.873C140.752 201.873 141.971 203.085 141.971 204.587C141.971 206.088 140.758 207.3 139.254 207.3C137.751 207.3 136.537 206.088 136.537 204.587C136.537 203.085 137.751 201.873 139.254 201.873Z" fill="#3A5A7A"/>
<path d="M131.382 201.873C132.88 201.873 134.099 203.085 134.099 204.587C134.099 206.088 132.886 207.3 131.382 207.3C129.879 207.3 128.665 206.088 128.665 204.587C128.665 203.085 129.879 201.873 131.382 201.873Z" fill="#3A5A7A"/>
<path d="M123.505 201.873C125.003 201.873 126.222 203.085 126.222 204.587C126.222 206.088 125.008 207.3 123.505 207.3C122.001 207.3 120.788 206.088 120.788 204.587C120.788 203.085 122.001 201.873 123.505 201.873Z" fill="#3A5A7A"/>
<path d="M147.126 210.653C148.624 210.653 149.843 211.865 149.843 213.366C149.843 214.868 148.63 216.08 147.126 216.08C145.623 216.08 144.409 214.868 144.409 213.366C144.409 211.865 145.623 210.653 147.126 210.653Z" fill="#3A5A7A"/>
<path d="M139.254 210.653C140.752 210.653 141.971 211.865 141.971 213.366C141.971 214.868 140.758 216.08 139.254 216.08C137.751 216.08 136.537 214.868 136.537 213.366C136.537 211.865 137.751 210.653 139.254 210.653Z" fill="#3A5A7A"/>
<path d="M131.382 210.653C132.88 210.653 134.099 211.865 134.099 213.366C134.099 214.868 132.886 216.08 131.382 216.08C129.879 216.08 128.665 214.868 128.665 213.366C128.665 211.865 129.879 210.653 131.382 210.653Z" fill="#3A5A7A"/>
<path d="M123.505 210.653C125.003 210.653 126.222 211.865 126.222 213.366C126.222 214.868 125.008 216.08 123.505 216.08C122.001 216.08 120.788 214.868 120.788 213.366C120.788 211.865 122.001 210.653 123.505 210.653Z" fill="#3A5A7A"/>
<path d="M147.126 219.432C148.624 219.432 149.843 220.644 149.843 222.146C149.843 223.647 148.63 224.859 147.126 224.859C145.623 224.859 144.409 223.647 144.409 222.146C144.409 220.644 145.623 219.432 147.126 219.432Z" fill="#3A5A7A"/>
<path d="M139.254 219.432C140.752 219.432 141.971 220.644 141.971 222.146C141.971 223.647 140.758 224.859 139.254 224.859C137.751 224.859 136.537 223.647 136.537 222.146C136.537 220.644 137.751 219.432 139.254 219.432Z" fill="#3A5A7A"/>
<path d="M131.382 219.432C132.88 219.432 134.099 220.644 134.099 222.146C134.099 223.647 132.886 224.859 131.382 224.859C129.879 224.859 128.665 223.647 128.665 222.146C128.665 220.644 129.879 219.432 131.382 219.432Z" fill="#3A5A7A"/>
<path d="M123.505 219.432C125.003 219.432 126.222 220.644 126.222 222.146C126.222 223.647 125.008 224.859 123.505 224.859C122.001 224.859 120.788 223.647 120.788 222.146C120.788 220.644 122.001 219.432 123.505 219.432Z" fill="#3A5A7A"/>
<path d="M147.126 228.206C148.624 228.206 149.843 229.418 149.843 230.92C149.843 232.421 148.63 233.633 147.126 233.633C145.623 233.633 144.409 232.421 144.409 230.92C144.409 229.418 145.623 228.206 147.126 228.206Z" fill="#3A5A7A"/>
<path d="M139.254 228.206C140.752 228.206 141.971 229.418 141.971 230.92C141.971 232.421 140.758 233.633 139.254 233.633C137.751 233.633 136.537 232.421 136.537 230.92C136.537 229.418 137.751 228.206 139.254 228.206Z" fill="#3A5A7A"/>
<path d="M131.382 228.206C132.88 228.206 134.099 229.418 134.099 230.92C134.099 232.421 132.886 233.633 131.382 233.633C129.879 233.633 128.665 232.421 128.665 230.92C128.665 229.418 129.879 228.206 131.382 228.206Z" fill="#3A5A7A"/>
<path d="M123.505 228.206C125.003 228.206 126.222 229.418 126.222 230.92C126.222 232.421 125.008 233.633 123.505 233.633C122.001 233.633 120.788 232.421 120.788 230.92C120.788 229.418 122.001 228.206 123.505 228.206Z" fill="#3A5A7A"/>
<path d="M147.126 236.986C148.624 236.986 149.843 238.198 149.843 239.699C149.843 241.201 148.63 242.413 147.126 242.413C145.623 242.413 144.409 241.201 144.409 239.699C144.409 238.198 145.623 236.986 147.126 236.986Z" fill="#3A5A7A"/>
<path d="M139.254 236.986C140.752 236.986 141.971 238.198 141.971 239.699C141.971 241.201 140.758 242.413 139.254 242.413C137.751 242.413 136.537 241.201 136.537 239.699C136.537 238.198 137.751 236.986 139.254 236.986Z" fill="#3A5A7A"/>
<path d="M131.382 236.986C132.88 236.986 134.099 238.198 134.099 239.699C134.099 241.201 132.886 242.413 131.382 242.413C129.879 242.413 128.665 241.201 128.665 239.699C128.665 238.198 129.879 236.986 131.382 236.986Z" fill="#3A5A7A"/>
<path d="M123.505 236.986C125.003 236.986 126.222 238.198 126.222 239.699C126.222 241.201 125.008 242.413 123.505 242.413C122.001 242.413 120.788 241.201 120.788 239.699C120.788 238.198 122.001 236.986 123.505 236.986Z" fill="#3A5A7A"/>
<path d="M164.182 205.761H170.562V178.39H164.182V205.761Z" fill="white"/>
<path d="M192.855 205.761H199.234V178.39H192.855V205.761Z" fill="white"/>
<path d="M192.855 226.705H199.234V214.076H192.855V226.705Z" fill="white"/>
<path d="M192.855 170.244H199.234V142.874H192.855V170.244Z" fill="white"/>
<path d="M164.149 170.244H170.529V142.874H164.149V170.244Z" fill="white"/>
<path d="M164.182 226.705H170.562V214.076H164.182V226.705Z" fill="white"/>
<path d="M178.521 157.446H184.901V130.076H178.521V157.446Z" fill="white"/>
<path d="M178.521 193.662H184.901V166.291H178.521V193.662Z" fill="white"/>
<path d="M178.521 227.671H184.901V202.501H178.521V227.671Z" fill="white"/>
<path d="M164.144 243.969C164.959 243.969 165.62 243.308 165.62 242.495V215.801H169.048V242.495C169.048 243.308 169.709 243.969 170.524 243.969C171.338 243.969 172 243.308 172 242.495V214.327C172 213.514 171.338 212.853 170.524 212.853H164.144C163.329 212.853 162.668 213.514 162.668 214.327V242.495C162.668 243.308 163.329 243.969 164.144 243.969Z" fill="#3A5A7A"/>
<path d="M178.499 231.002C179.314 231.002 179.975 230.341 179.975 229.528V202.834H183.403V229.528C183.403 230.341 184.065 231.002 184.879 231.002C185.694 231.002 186.355 230.341 186.355 229.528V201.36C186.355 200.547 185.694 199.886 184.879 199.886H178.499C177.685 199.886 177.023 200.547 177.023 201.36V229.528C177.023 230.341 177.685 231.002 178.499 231.002Z" fill="#3A5A7A"/>
<path d="M192.85 243.969C193.664 243.969 194.326 243.308 194.326 242.495V215.801H197.753V242.495C197.753 243.308 198.415 243.969 199.229 243.969C200.044 243.969 200.705 243.308 200.705 242.495V214.327C200.705 213.514 200.044 212.853 199.229 212.853H192.85C192.035 212.853 191.374 213.514 191.374 214.327V242.495C191.374 243.308 192.035 243.969 192.85 243.969Z" fill="#3A5A7A"/>
<path d="M164.144 208.032C164.959 208.032 165.62 207.371 165.62 206.558V179.865H169.048V206.558C169.048 207.371 169.709 208.032 170.524 208.032C171.338 208.032 172 207.371 172 206.558V178.39C172 177.577 171.338 176.916 170.524 176.916H164.144C163.329 176.916 162.668 177.577 162.668 178.39V206.558C162.668 207.371 163.329 208.032 164.144 208.032Z" fill="#3A5A7A"/>
<path d="M178.499 195.07C179.314 195.07 179.975 194.41 179.975 193.596V166.903H183.403V193.596C183.403 194.41 184.065 195.07 184.879 195.07C185.694 195.07 186.355 194.41 186.355 193.596V165.429C186.355 164.615 185.694 163.955 184.879 163.955H178.499C177.685 163.955 177.023 164.615 177.023 165.429V193.596C177.023 194.41 177.685 195.07 178.499 195.07Z" fill="#3A5A7A"/>
<path d="M192.85 208.032C193.664 208.032 194.326 207.371 194.326 206.558V179.865H197.753V206.558C197.753 207.371 198.415 208.032 199.229 208.032C200.044 208.032 200.705 207.371 200.705 206.558V178.39C200.705 177.577 200.044 176.916 199.229 176.916H192.85C192.035 176.916 191.374 177.577 191.374 178.39V206.558C191.374 207.371 192.035 208.032 192.85 208.032Z" fill="#3A5A7A"/>
<path d="M164.144 172.101C164.959 172.101 165.62 171.44 165.62 170.627V143.933H169.048V170.627C169.048 171.44 169.709 172.101 170.524 172.101C171.338 172.101 172 171.44 172 170.627V142.459C172 141.646 171.338 140.985 170.524 140.985H164.144C163.329 140.985 162.668 141.646 162.668 142.459V170.627C162.668 171.44 163.329 172.101 164.144 172.101Z" fill="#3A5A7A"/>
<path d="M178.499 159.139C179.314 159.139 179.975 158.478 179.975 157.665V131.343H183.403V157.665C183.403 158.478 184.065 159.139 184.879 159.139C185.694 159.139 186.355 158.478 186.355 157.665V129.863C186.355 129.05 185.694 128.389 184.879 128.389H178.499C177.685 128.389 177.023 129.05 177.023 129.863V157.665C177.023 158.478 177.685 159.139 178.499 159.139Z" fill="#3A5A7A"/>
<path d="M192.85 172.101C193.664 172.101 194.326 171.44 194.326 170.627V143.933H197.753V170.627C197.753 171.44 198.415 172.101 199.229 172.101C200.044 172.101 200.705 171.44 200.705 170.627V142.459C200.705 141.646 200.044 140.985 199.229 140.985H192.85C192.035 140.985 191.374 141.646 191.374 142.459V170.627C191.374 171.44 192.035 172.101 192.85 172.101Z" fill="#3A5A7A"/>
<path d="M149.843 164.26H122.357V171.626H149.843V164.26Z" fill="white"/>
<path d="M149.805 173.105H122.395C121.558 173.105 120.881 172.428 120.881 171.593V164.299C120.881 163.463 121.558 162.786 122.395 162.786H149.805C150.641 162.786 151.319 163.463 151.319 164.299V171.593C151.319 172.428 150.641 173.105 149.805 173.105ZM123.833 170.152H148.362V165.734H123.833V170.152Z" fill="#3A5A7A"/>
<path d="M154.315 130.513H209.003L206.51 119.5H156.807L154.315 130.513Z" fill="white"/>
<path d="M209.003 131.987H154.315C153.866 131.987 153.44 131.785 153.161 131.43C152.882 131.081 152.773 130.622 152.877 130.185L155.37 119.173C155.523 118.501 156.119 118.021 156.813 118.021H206.516C207.205 118.021 207.806 118.501 207.959 119.173L210.452 130.185C210.55 130.622 210.446 131.081 210.162 131.43C209.883 131.78 209.457 131.987 209.009 131.987H209.003ZM156.162 129.033H207.15L205.324 120.974H157.983L156.157 129.033H156.162Z" fill="#3A5A7A"/>
<path d="M130.469 131.315C130.469 132.331 131.295 133.15 132.306 133.15C133.317 133.15 134.143 132.331 134.143 131.315C134.143 130.3 133.323 129.481 132.306 129.481C131.289 129.481 130.469 130.3 130.469 131.315Z" fill="#3A5A7A"/>
<path d="M123.631 131.315C123.631 132.331 124.456 133.15 125.467 133.15C126.479 133.15 127.304 132.331 127.304 131.315C127.304 130.3 126.484 129.481 125.467 129.481C124.451 129.481 123.631 130.3 123.631 131.315Z" fill="#3A5A7A"/>
<path d="M116.786 131.315C116.786 132.331 117.612 133.15 118.623 133.15C119.634 133.15 120.46 132.331 120.46 131.315C120.46 130.3 119.64 129.481 118.623 129.481C117.606 129.481 116.786 130.3 116.786 131.315Z" fill="#3A5A7A"/>
<path d="M109.948 131.315C109.948 132.331 110.768 133.15 111.784 133.15C112.801 133.15 113.621 132.331 113.621 131.315C113.621 130.3 112.801 129.481 111.784 129.481C110.768 129.481 109.948 130.3 109.948 131.315Z" fill="#3A5A7A"/>
<path d="M103.103 131.315C103.103 132.331 103.923 133.15 104.94 133.15C105.957 133.15 106.777 132.331 106.777 131.315C106.777 130.3 105.951 129.481 104.94 129.481C103.929 129.481 103.103 130.3 103.103 131.315Z" fill="#3A5A7A"/>
<path d="M96.2644 131.315C96.2644 132.331 97.0844 133.15 98.1012 133.15C99.118 133.15 99.938 132.331 99.938 131.315C99.938 130.3 99.1125 129.481 98.1012 129.481C97.0899 129.481 96.2644 130.3 96.2644 131.315Z" fill="#3A5A7A"/>
<path d="M89.4202 131.315C89.4202 132.331 90.2402 133.15 91.257 133.15C92.2738 133.15 93.0938 132.331 93.0938 131.315C93.0938 130.3 92.2683 129.481 91.257 129.481C90.2456 129.481 89.4202 130.3 89.4202 131.315Z" fill="#3A5A7A"/>
<path d="M82.5813 131.315C82.5813 132.331 83.4013 133.15 84.4181 133.15C85.4349 133.15 86.2549 132.331 86.2549 131.315C86.2549 130.3 85.4294 129.481 84.4181 129.481C83.4068 129.481 82.5813 130.3 82.5813 131.315Z" fill="#3A5A7A"/>
<path d="M75.7371 131.315C75.7371 132.331 76.5571 133.15 77.5739 133.15C78.5907 133.15 79.4107 132.331 79.4107 131.315C79.4107 130.3 78.5907 129.481 77.5739 129.481C76.5571 129.481 75.7371 130.3 75.7371 131.315Z" fill="#3A5A7A"/>
<path d="M112.56 149.972H139.249C140.063 149.972 140.725 149.311 140.725 148.498C140.725 147.684 140.063 147.023 139.249 147.023H112.56C111.746 147.023 111.084 147.684 111.084 148.498C111.084 149.311 111.746 149.972 112.56 149.972Z" fill="#3A5A7A"/>
<path d="M24.1152 172.101H58.1561C58.9706 172.101 59.6321 171.44 59.6321 170.627C59.6321 169.813 58.9706 169.152 58.1561 169.152H24.1152C23.3006 169.152 22.6392 169.813 22.6392 170.627C22.6392 171.44 23.3006 172.101 24.1152 172.101Z" fill="#3A5A7A"/>
<path d="M105.957 102.04H141.304C142.119 102.04 142.78 101.379 142.78 100.565C142.78 99.7519 142.119 99.0912 141.304 99.0912H105.957C105.142 99.0912 104.481 99.7519 104.481 100.565C104.481 101.379 105.142 102.04 105.957 102.04Z" fill="#3A5A7A"/>
<path d="M354.226 105.326H389.573C390.388 105.326 391.049 104.666 391.049 103.852C391.049 103.039 390.388 102.378 389.573 102.378H354.226C353.411 102.378 352.75 103.039 352.75 103.852C352.75 104.666 353.411 105.326 354.226 105.326Z" fill="#3A5A7A"/>
<path d="M10.0932 109.214H32.5284C33.3429 109.214 34.0044 108.553 34.0044 107.74C34.0044 106.926 33.3429 106.266 32.5284 106.266H10.0932C9.27865 106.266 8.61719 106.926 8.61719 107.74C8.61719 108.553 9.27865 109.214 10.0932 109.214Z" fill="#3A5A7A"/>
<path d="M206.511 130.966H156.808V136.268H206.511V130.966Z" fill="white"/>
<path d="M206.472 137.747H156.846C156.009 137.747 155.332 137.07 155.332 136.235V131.004C155.332 130.169 156.009 129.492 156.846 129.492H206.472C207.309 129.492 207.986 130.169 207.986 131.004V136.235C207.986 137.07 207.309 137.747 206.472 137.747ZM158.284 134.793H205.029V132.44H158.284V134.793Z" fill="#3A5A7A"/>
<path d="M156.25 171.604H111.784V178.642H156.25V171.604Z" fill="white"/>
<path d="M156.212 180.116H111.822C110.986 180.116 110.308 179.439 110.308 178.603V171.642C110.308 170.807 110.986 170.13 111.822 170.13H156.212C157.048 170.13 157.726 170.807 157.726 171.642V178.603C157.726 179.439 157.048 180.116 156.212 180.116ZM113.26 177.162H154.769V173.078H113.26V177.162Z" fill="#3A5A7A"/>
<path d="M224.026 119.811L296.497 119.811V111.84L224.026 111.84V119.811Z" fill="white"/>
<path d="M296.497 122.705H224.026C223.211 122.705 222.55 122.045 222.55 121.231V111.84C222.55 111.027 223.211 110.366 224.026 110.366H296.497C297.312 110.366 297.973 111.027 297.973 111.84V121.231C297.973 122.045 297.312 122.705 296.497 122.705ZM225.507 119.751H295.021V113.314H225.507V119.751Z" fill="#3A5A7A"/>
<path d="M211.906 227.431H151.412V250.521H211.906V227.431Z" fill="white"/>
<path d="M211.868 252H151.45C150.614 252 149.936 251.323 149.936 250.488V227.469C149.936 226.634 150.614 225.957 151.45 225.957H211.868C212.704 225.957 213.382 226.634 213.382 227.469V250.488C213.382 251.323 212.704 252 211.868 252ZM152.893 249.047H210.43V228.905H152.893V249.047Z" fill="#3A5A7A"/>
<path d="M199.169 239.082H181.659V250.581H199.169V239.082Z" fill="white"/>
<path d="M199.131 252.061H181.697C180.861 252.061 180.183 251.383 180.183 250.548V239.121C180.183 238.285 180.861 237.608 181.697 237.608H199.131C199.967 237.608 200.645 238.285 200.645 239.121V250.548C200.645 251.383 199.967 252.061 199.131 252.061ZM183.135 249.107H197.687V240.557H183.135V249.107Z" fill="#3A5A7A"/>
<path d="M181.686 239.082H164.177V250.581H181.686V239.082Z" fill="white"/>
<path d="M181.654 252.061H164.22C163.384 252.061 162.706 251.383 162.706 250.548V239.121C162.706 238.285 163.384 237.608 164.22 237.608H181.654C182.49 237.608 183.168 238.285 183.168 239.121V250.548C183.168 251.383 182.49 252.061 181.654 252.061ZM165.658 249.107H180.21V240.557H165.658V249.107Z" fill="#3A5A7A"/>
<path d="M407.673 227.431H344.806V250.521H407.673V227.431Z" fill="white"/>
<path d="M407.64 252H344.85C344.014 252 343.336 251.323 343.336 250.488V227.469C343.336 226.634 344.014 225.957 344.85 225.957H407.646C408.482 225.957 409.16 226.634 409.16 227.469V250.488C409.16 251.323 408.482 252 407.646 252H407.64ZM346.288 249.047H406.202V228.905H346.288V249.047Z" fill="#3A5A7A"/>
<path d="M394.438 239.082H376.24V250.581H394.438V239.082Z" fill="white"/>
<path d="M394.4 252.061H376.278C375.442 252.061 374.764 251.383 374.764 250.548V239.121C374.764 238.285 375.442 237.608 376.278 237.608H394.4C395.236 237.608 395.914 238.285 395.914 239.121V250.548C395.914 251.383 395.236 252.061 394.4 252.061ZM377.716 249.107H392.957V240.557H377.716V249.107Z" fill="#3A5A7A"/>
<path d="M376.278 239.082H358.08V250.581H376.278V239.082Z" fill="white"/>
<path d="M376.24 252.061H358.118C357.281 252.061 356.604 251.383 356.604 250.548V239.121C356.604 238.285 357.281 237.608 358.118 237.608H376.24C377.076 237.608 377.754 238.285 377.754 239.121V250.548C377.754 251.383 377.076 252.061 376.24 252.061ZM359.556 249.107H374.797V240.557H359.556V249.107Z" fill="#3A5A7A"/>
<path d="M331.555 126.189L322.694 137.676H465.161L458.202 126.189H331.555Z" fill="white"/>
<path d="M465.161 139.44H322.699C322.027 139.44 321.415 139.058 321.114 138.457C320.819 137.856 320.89 137.136 321.3 136.606L330.161 125.124C330.495 124.693 331.014 124.436 331.561 124.436H458.207C458.825 124.436 459.399 124.758 459.716 125.288L466.669 136.77C466.997 137.316 467.008 137.993 466.697 138.55C466.385 139.101 465.795 139.445 465.161 139.445V139.44ZM326.285 135.913H462.034L457.212 127.952H332.424L326.285 135.913Z" fill="#3A5A7A"/>
<path d="M553.72 255.915H13.7286C13.7286 255.915 13.7231 255.915 13.7176 255.915C12.7828 255.932 11.8918 255.571 11.1975 254.894C10.4814 254.19 10.0823 253.256 10.0878 252.263C10.0878 251.853 9.92377 251.46 9.63404 251.171C9.34431 250.881 8.95071 250.717 8.54071 250.717H8.32204C7.91204 250.717 7.51844 250.881 7.22871 251.171C6.93898 251.46 6.77497 251.853 6.77497 252.263C6.77497 253.256 6.38138 254.195 5.66524 254.894C4.97098 255.577 4.08538 255.932 3.14511 255.915C3.13418 255.915 3.12324 255.915 3.11231 255.915C3.03031 255.915 2.95378 255.926 2.87724 255.937C2.77337 255.921 2.66951 255.91 2.56564 255.915C1.61991 255.932 0.739775 255.571 0.0455074 254.894C-0.670626 254.19 -1.06969 253.256 -1.06422 252.263C-1.06422 251.853 -1.22822 251.46 -1.51796 251.171C-1.80769 250.881 -2.20129 250.717 -2.61129 250.717H-2.82449C-3.23449 250.717 -3.62809 250.881 -3.91782 251.171C-4.20756 251.46 -4.37156 251.853 -4.37156 252.263C-4.37156 253.256 -4.76516 254.195 -5.48129 254.894C-6.17556 255.571 -7.05569 255.932 -8.00142 255.915C-8.01236 255.915 -8.02329 255.915 -8.03422 255.915C-8.11622 255.915 -8.19276 255.926 -8.26929 255.937C-8.36769 255.921 -8.47156 255.91 -8.58089 255.915C-9.52116 255.932 -10.4068 255.571 -11.101 254.894C-11.8172 254.19 -12.2162 253.256 -12.2108 252.263C-12.2108 251.853 -12.3748 251.46 -12.6645 251.171C-12.9542 250.881 -13.3478 250.717 -13.7578 250.717H-13.9765C-14.3865 250.717 -14.7801 250.881 -15.0698 251.171C-15.3596 251.46 -15.5236 251.853 -15.5236 252.263C-15.5236 253.256 -15.9172 254.195 -16.6333 254.894C-17.0378 255.293 -17.508 255.571 -18.0164 255.74V258.902C-16.6989 258.678 -15.4525 258.05 -14.474 257.095C-14.2553 256.882 -14.053 256.658 -13.8726 256.423C-13.6868 256.658 -13.4845 256.882 -13.2713 257.095C-11.9976 258.339 -10.2646 259.027 -8.52622 259C-8.44969 259 -8.37862 258.984 -8.30209 258.973C-8.23102 258.984 -8.15449 259 -8.07796 259C-8.03422 259 -7.98502 259 -7.94129 259C-6.24662 259 -4.57382 258.312 -3.33289 257.095C-3.11422 256.882 -2.91196 256.658 -2.73156 256.423C-2.54569 256.658 -2.34889 256.882 -2.13022 257.095C-0.856489 258.339 0.887375 259.027 2.61484 259C2.69138 259 2.76244 258.984 2.83898 258.973C2.91004 258.984 2.98658 259 3.06311 259C3.10684 259 3.15604 259 3.19978 259C4.89444 259 6.56724 258.312 7.80818 257.095C8.02684 256.882 8.22911 256.658 8.40951 256.423C8.59538 256.658 8.79764 256.882 9.01084 257.095C9.90191 257.968 11.0171 258.558 12.2034 258.825C12.4056 258.935 12.6298 259 12.8758 259H553.693H801.973V255.915H553.693H553.72Z" fill="#3A5A7A"/>
<g style="mix-blend-mode:multiply" opacity="0.27">
<path d="M260.805 204.587H264.698V251.05H256.11V221.125L260.805 204.587Z" fill="#3A5A7A"/>
</g>
<g style="mix-blend-mode:multiply" opacity="0.27">
<path d="M230.548 186.1H223.118V243.63H230.548V186.1Z" fill="#3A5A7A"/>
</g>
<g style="mix-blend-mode:multiply" opacity="0.27">
<path d="M156.25 170.659H149.843V251.056H156.25V170.659Z" fill="#3A5A7A"/>
</g>
<g style="mix-blend-mode:multiply" opacity="0.27">
<path d="M230.034 103.847H219.084V184.347H230.034V103.847Z" fill="#3A5A7A"/>
</g>
</g>
<defs>
<clipPath id="clip0_32_618">
<rect width="820" height="259" fill="white" transform="translate(-18)"/>
</clipPath>
</defs>
</svg>
